<?xml version="1.0" encoding="iso-8859-1"?>
<!-- Uploaded to: SVG Repo, www.svgrepo.com, Generator: SVG Repo Mixer Tools -->
<svg fill="#333333" height="800px" width="800px" version="1.1" id="Layer_1" xmlns="http://www.w3.org/2000/svg" xmlns:xlink="http://www.w3.org/1999/xlink" 
	 viewBox="0 0 512 512" xml:space="preserve">
<g>
	<g>
		<path d="M477.867,409.6V56.889H34.133V409.6H0v45.511h512V409.6H477.867z M227.556,91.022h34.133v168.31
			c-6.599,2.679-12.428,6.862-17.067,12.124c-4.639-5.262-10.468-9.444-17.067-12.124V91.022z M159.289,91.022h34.133v168.31
			c-6.599,2.679-12.428,6.862-17.067,12.124c-4.639-5.262-10.468-9.444-17.067-12.124V91.022z M443.733,409.6H68.267V91.022h56.889
			v168.31c-16.662,6.766-28.444,23.117-28.444,42.179c0,25.095,20.416,45.511,45.511,45.511c13.583,0,25.787-5.989,34.133-15.457
			c8.346,9.467,20.551,15.457,34.133,15.457c13.583,0,25.787-5.989,34.133-15.457c8.346,9.467,20.551,15.457,34.133,15.457
			c25.095,0,45.511-20.416,45.511-45.511c0-19.061-11.784-35.412-28.444-42.179V91.022h27.521l51.045,153.138
			c-9.773,8.355-15.988,20.759-15.988,34.595c0,25.095,20.416,45.511,45.511,45.511c17.118,0,32.053-9.505,39.822-23.51V409.6z
			 M443.733,256.754c-7.333-13.221-21.056-22.421-36.97-23.411l-47.44-142.321h84.409V256.754z"/>
	</g>
</g>
</svg>
